<svg viewBox="-60 0 512 512.0022" xmlns="http://www.w3.org/2000/svg"><path d="m215.925781 88.175781h-32.0625c-3.449219 0-6.453125 2.347657-7.289062 5.695313l-24.050781 96.191406c-1.167969 4.671875 2.484374 9.339844 7.292968 9.339844h80.160156c4.808594 0 8.460938-4.667969 7.289063-9.339844l-24.046875-96.191406c-.835938-3.347656-3.84375-5.695313-7.292969-5.695313zm-46.484375 96.195313 20.289063-81.164063h20.328125l20.292968 81.164063zm0 0"/><path d="m110.832031 378.632812 30.351563-91.054687h116.972656l22.625 90.5c.835938 3.347656 3.839844 5.695313 7.289062 5.695313h96.195313c4.902344 0 8.566406-4.839844 7.230469-9.5625l-24.917969-88.175782c-1.128906-3.992187-5.285156-6.320312-9.277344-5.1875-3.992187 1.128906-6.316406 5.28125-5.1875 9.273438l22.21875 78.621094h-80.390625l-22.625-90.5c-.835937-3.347657-3.84375-5.695313-7.292968-5.695313h-128.257813c-3.234375 0-6.105469 2.070313-7.128906 5.140625l-30.351563 91.054688h-80.632812l107.648437-353.710938h149.070313l68.679687 243.027344c1.128907 3.996094 5.285157 6.320312 9.277344 5.1875 3.992187-1.125 6.316406-5.28125 5.1875-9.273438l-70.226563-248.5c-.914062-3.238281-3.871093-5.472656-7.234374-5.472656h-160.320313c-3.308594 0-6.226563 2.164062-7.191406 5.328125l-112.222657 368.742187c-1.445312 4.75 2.226563 9.703126 7.1875 9.703126h96.195313c3.234375 0 6.105469-2.070313 7.128906-5.140626zm0 0"/><path d="m385.835938 440.410156-40.699219-39.425781c-1.429688-1.386719-3.355469-2.144531-5.347657-2.117187-1.992187.03125-3.890624.851562-5.277343 2.285156l-16.734375 17.273437c-2.886719 2.980469-2.8125 7.738281.167968 10.625l7.078126 6.859375h-250.339844l7.328125-7.554687c2.847656-2.941407 2.773437-7.78125-.164063-10.628907l-17.265625-16.742187c-2.980469-2.886719-7.738281-2.8125-10.625.164063l-40.4375 41.699218c-7.417969 7.648438-7.21875 20.226563.433594 27.636719l40.699219 39.429687c2.941406 2.847657 7.78125 2.769532 10.628906-.167968l16.730469-17.273438c2.890625-2.980468 2.8125-7.738281-.167969-10.625l-7.078125-6.859375h250.339844l-7.324219 7.554688c-2.851562 2.9375-2.773438 7.777343.160156 10.628906l17.265625 16.738281c2.941407 2.851563 7.777344 2.777344 10.625-.160156l40.4375-41.699219c7.417969-7.652343 7.21875-20.226562-.433593-27.640625zm-10.355469 17.175782-35.203125 36.300781-6.476563-6.277344 14.457031-14.90625c2.101563-2.167969 2.703126-5.382813 1.523438-8.160156-1.175781-2.78125-3.902344-4.585938-6.921875-4.585938h-286.652344c-3.0625 0-5.816406 1.855469-6.964843 4.691407-1.148438 2.839843-.460938 6.089843 1.734374 8.21875l15.011719 14.542968-6.273437 6.476563-35.304688-34.199219c-1.765625-1.710938-1.8125-4.613281-.097656-6.378906l35.203125-36.300782 6.472656 6.277344-14.457031 14.90625c-2.101562 2.167969-2.699219 5.382813-1.523438 8.160156 1.175782 2.78125 3.902344 4.585938 6.921876 4.585938h286.652343c3.0625 0 5.816407-1.855469 6.964844-4.691406 1.148437-2.839844.464844-6.089844-1.734375-8.21875l-15.011719-14.542969 6.277344-6.476563 35.300781 34.199219c0 .203125.75.933594.878906 1.183594.269532.523437.429688 1.101563.476563 1.6875.105469 1.285156-.355469 2.578125-1.253906 3.507813zm0 0"/></svg>